PathFileType	4	(X/Y/Z)	./resultDataOpenSim/trcMotMarkerGrf/sub10/qtm-04-01.trc
DataRate	CameraRate	NumFrames	NumMarkers	Units	OrigDataRate	OrigDataStartFrame	OrigNumFrames
250.000000	250.000000	15	24	m	250.000000	432	493
Frame#	Time	L.Toe.Tip			R.Toe.Tip			L.Ankle.Lat			R.Ankle.Lat			L.Ankle.Med			R.Ankle.Med			L.Heel			R.Heel			L.Knee.Lat			R.Knee.Lat			L.Knee.Med			R.Knee.Med			L.Thigh.Upper			R.Thigh.Upper			L.ASIS			R.ASIS			V.Sacral			L.Acromium			R.Acromium			C7			L.Elbow			R.Elbow			L.Wrist.Lat			R.Wrist.Lat
		X1	Y1	Z1	X2	Y2	Z2	X3	Y3	Z3	X4	Y4	Z4	X5	Y5	Z5	X6	Y6	Z6	X7	Y7	Z7	X8	Y8	Z8	X9	Y9	Z9	X10	Y10	Z10	X11	Y11	Z11	X12	Y12	Z12	X13	Y13	Z13	X14	Y14	Z14	X15	Y15	Z15	X16	Y16	Z16	X17	Y17	Z17	X18	Y18	Z18	X19	Y19	Z19	X20	Y20	Z20	X21	Y21	Z21	X22	Y22	Z22	X23	Y23	Z23	X24	Y24	Z24

432	1.724	1.6602179	0.11601135	-0.15374756	0.9721265	0.038246468	0.050706262	1.5289068	0.083614295	-0.18326721	0.83774102	0.075453299	0.092315704	1.5336903	0.10541587	-0.10240835	0.86022532	0.09614727	0.0063623039	1.4850655	0.028534707	-0.1420021	0.78058124	0.061776067	0.048220028	1.3788066	0.4482153	-0.18566566	1.0345164	0.42908745	0.11777201	1.3988185	0.418392	-0.067745713	1.0550711	0.42664048	-0.0088674633	1.2353791	0.79853656	-0.2158118	1.1296587	0.8326215	0.1624261	1.2703719	0.91061815	-0.13552838	1.2228252	0.9168163	0.11071181	1.0518862	0.91495493	-0.062074615	1.1787569	1.3902034	-0.17654567	1.1473185	1.3794486	0.13966807	1.0826901	1.4061605	-0.028846736	0.99958697	1.1156118	-0.26983538	1.1816993	1.0291701	0.24905462	1.0129594	0.88009186	-0.32131634	1.433653	1.0501431	0.21398492
433	1.728	1.6638395	0.11353637	-0.15445575	0.97234677	0.038306484	0.050689812	1.5324606	0.081790327	-0.18357398	0.83904268	0.077061235	0.09223776	1.5374522	0.1035989	-0.1025878	0.86130154	0.097425914	0.006356105	1.4883813	0.026861906	-0.14173816	0.7812606	0.064084418	0.04828052	1.3851399	0.44763713	-0.18614136	1.0388284	0.42870367	0.11696289	1.4052337	0.41801206	-0.068334714	1.0600338	0.4257554	-0.0095454272	1.2422447	0.7983494	-0.21657945	1.1349051	0.83178212	0.16139052	1.2769556	0.90970973	-0.1357388	1.2285245	0.91577993	0.11039824	1.05816	0.91443036	-0.063582278	1.183975	1.3895223	-0.17754201	1.1528874	1.3786855	0.13868316	1.088048	1.4052877	-0.029795149	1.0045684	1.1149041	-0.27020035	1.1880481	1.0283542	0.24758063	1.0176694	0.87956328	-0.32229048	1.4397211	1.049976	0.2116244
434	1.732	1.6673919	0.11080106	-0.15541861	0.97258654	0.0383642	0.050683809	1.5357186	0.079829596	-0.18402926	0.84030468	0.07877752	0.09226357	1.5407585	0.10162415	-0.1027211	0.86245517	0.098781429	0.0063725648	1.4911099	0.025209767	-0.14139148	0.78203484	0.066507473	0.048356157	1.3915605	0.44708906	-0.18662913	1.0432689	0.42833616	0.11616966	1.4117102	0.41769232	-0.068879967	1.0650232	0.42489722	-0.010234298	1.2490073	0.79831421	-0.2173914	1.1401898	0.83098083	0.16033024	1.283579	0.90886452	-0.13600228	1.2342952	0.9147599	0.11003783	1.0644977	0.91397632	-0.06504848	1.1892156	1.3888756	-0.1785585	1.1584749	1.3779803	0.13767776	1.0934415	1.4044436	-0.030778959	1.0096155	1.1141904	-0.27054803	1.1943181	1.027585	0.24606188	1.0225079	0.87902258	-0.3232345	1.44572	1.0497297	0.20926839
435	1.736	1.6705759	0.1078089	-0.15636433	0.97284097	0.038412261	0.050695762	1.5385458	0.077721001	-0.18443597	0.84146212	0.080609155	0.092388881	1.5436381	0.0995055	-0.10280828	0.86366746	0.10023091	0.0064248237	1.4931621	0.023755977	-0.14109229	0.78289209	0.069061483	0.04848428	1.3980877	0.44656167	-0.18714681	1.0478253	0.42797905	0.11538312	1.4182196	0.41743216	-0.06937814	1.0700461	0.42406791	-0.010925735	1.2556754	0.79839504	-0.21824894	1.1456519	0.83016565	0.15925317	1.2902354	0.90809206	-0.13630162	1.2401657	0.91376001	0.10961807	1.0709063	0.91358769	-0.066469791	1.1944682	1.3882656	-0.17959896	1.1640947	1.3773301	0.13665225	1.0988768	1.40362	-0.031787648	1.0147315	1.1134762	-0.27089284	1.2005407	1.0268744	0.24451087	1.0274764	0.8784672	-0.32415064	1.4516442	1.0494086	0.20692266
436	1.74	1.6732108	0.1044574	-0.15712382	0.97311416	0.038452127	0.050725082	1.5408567	0.075482704	-0.18468178	0.84258533	0.082548668	0.092572101	1.5461735	0.097279052	-0.10285706	0.86493316	0.10178046	0.0065214459	1.4945313	0.022635924	-0.14090987	0.78380991	0.071756618	0.048707057	1.404693	0.44604047	-0.18768857	1.0524905	0.4276217	0.114595	1.424738	0.41721697	-0.069842189	1.0751176	0.42326909	-0.01161393	1.2622526	0.79855234	-0.2191503	1.1516404	0.82923223	0.15819248	1.2969125	0.90740147	-0.13662462	1.2461592	0.91278965	0.10914262	1.0773848	0.91325774	-0.067835966	1.1997314	1.3876877	-0.18066422	1.1697453	1.3767358	0.13559866	1.1043538	1.4028099	-0.032816329	1.019959	1.1127536	-0.27129584	1.2067442	1.0261996	0.24291263	1.032579	0.87789299	-0.32504203	1.4574832	1.0490196	0.20459406
437	1.744	1.6754005	0.10052344	-0.15773471	0.97340958	0.038486658	0.050765069	1.5427145	0.07321159	-0.18480975	0.8437678	0.084590172	0.092783276	1.5485324	0.095050359	-0.10287851	0.86627612	0.10341437	0.0066595027	1.4953829	0.021897012	-0.1407867	0.78478214	0.074591569	0.049031102	1.4112958	0.44550702	-0.18822372	1.0572973	0.42725074	0.11380443	1.4312531	0.41702294	-0.070294762	1.0802533	0.4225019	-0.012294253	1.2687458	0.79875008	-0.22009429	1.1585253	0.82807448	0.15718478	1.3035947	0.90680285	-0.13697892	1.2522732	0.91184812	0.10861067	1.0839199	0.91297565	-0.069130301	1.2050109	1.3871342	-0.18175546	1.1754185	1.3761968	0.13450688	1.109862	1.4020134	-0.033866312	1.0253233	1.1120091	-0.27179147	1.2129288	1.0255101	0.2412312	1.0378184	0.87729616	-0.32591019	1.4632341	1.0485642	0.20228832
438	1.748	1.6774839	0.095749389	-0.15832387	0.9737243	0.038514526	0.050806038	1.5443291	0.071123146	-0.18491371	0.84505748	0.086729326	0.09302636	1.5509315	0.093008503	-0.10288497	0.86772686	0.10511323	0.0068305732	1.4960058	0.021599702	-0.14061953	0.78583493	0.077558891	0.049422707	1.4178184	0.44494867	-0.18872877	1.0623554	0.42684593	0.11301695	1.4377447	0.41682203	-0.07075816	1.0854625	0.42176756	-0.012968409	1.275174	0.79896421	-0.2210816	1.1662082	0.82672667	0.1562258	1.310258	0.90630746	-0.13737881	1.2584877	0.91092564	0.10801574	1.0904868	0.91273431	-0.070337322	1.2103139	1.3866034	-0.18287392	1.1811034	1.3757036	0.13337602	1.115384	1.4012402	-0.034935864	1.0307918	1.1112395	-0.27233473	1.219051	1.024783	0.23944995	1.0431968	0.87667533	-0.32675623	1.4689041	1.0480384	0.20000799
439	1.752	1.6798899	0.090072904	-0.15893729	0.97405561	0.038533155	0.050837424	1.5460223	0.069494182	-0.18503446	0.84645693	0.088964366	0.093316808	1.5535677	0.091370739	-0.10288054	0.869301	0.10687509	0.0070282023	1.4966897	0.021880363	-0.14037187	0.78701425	0.080656351	0.049826485	1.42423	0.44437484	-0.18920485	1.0678046	0.42638755	0.11223322	1.4441657	0.41658213	-0.071238058	1.0907462	0.42106773	-0.013665261	1.2815587	0.79918643	-0.22211455	1.173986	0.82540698	0.15525819	1.3168704	0.90592819	-0.13783318	1.2647899	0.91001721	0.10735396	1.0970528	0.91253201	-0.071453574	1.2156427	1.3860977	-0.18402061	1.1867869	1.3752501	0.13221813	1.1209009	1.400505	-0.036021038	1.0363175	1.1104483	-0.27286377	1.2250396	1.0240461	0.2375926	1.0487149	0.8760297	-0.32758288	1.474504	1.0474382	0.19775304
440	1.756	1.6829298	0.083828281	-0.15951206	0.974409	0.038544464	0.050851492	1.5481395	0.068487933	-0.18515305	0.84796697	0.091304169	0.093653162	1.5565442	0.090264997	-0.10285539	0.87100356	0.10871263	0.0072534797	1.4976181	0.022807371	-0.1401176	0.78835538	0.083893807	0.050206349	1.4305337	0.44382857	-0.1896732	1.0736498	0.42588707	0.111438	1.4504604	0.41627323	-0.071707243	1.0961046	0.42040469	-0.014459903	1.2879145	0.79942412	-0.22319855	1.1811989	0.82431202	0.15422604	1.3233981	0.90568001	-0.1383498	1.2711815	0.90912464	0.10662138	1.1035713	0.91237627	-0.072510797	1.220994	1.3856241	-0.18520045	1.1924734	1.3748428	0.13104884	1.1263981	1.3998237	-0.037121924	1.04189	1.1096366	-0.27336382	1.2308435	1.0233353	0.23569288	1.054371	0.87535541	-0.32839246	1.4800404	1.0467618	0.1955239
441	1.76	1.6865708	0.077667107	-0.15997829	0.9747974	0.038553655	0.050845075	1.5508787	0.068015991	-0.18524375	0.84966022	0.093767915	0.094028665	1.5598162	0.089640323	-0.10279926	0.87284058	0.1106375	0.0075123113	1.498817	0.024231787	-0.13999778	0.78987142	0.087284852	0.050568822	1.4367386	0.44338116	-0.19017209	1.0796794	0.42540051	0.11060522	1.4566118	0.41589069	-0.072116013	1.1015508	0.41978	-0.015443074	1.2942548	0.79969798	-0.22433647	1.1878172	0.82342515	0.15312707	1.3298209	0.90557461	-0.1389425	1.2776659	0.90825023	0.10581047	1.109986	0.91229428	-0.07356531	1.2263693	1.3851967	-0.18642317	1.1981933	1.3744926	0.12988111	1.1318694	1.3992106	-0.038244153	1.0475308	1.1088044	-0.27385035	1.2364654	1.0226634	0.23376226	1.060162	0.87464746	-0.32918316	1.4855159	1.0460089	0.19332335
442	1.764	1.6904293	0.072198846	-0.16029685	0.9752346	0.03856396	0.050817946	1.5541302	0.067800992	-0.1853159	0.85168964	0.096370806	0.094443538	1.5632141	0.089299851	-0.10272418	0.87482297	0.11265387	0.0078056462	1.5001875	0.025864713	-0.14013832	0.79157096	0.090835122	0.050934212	1.4428601	0.44310889	-0.1907451	1.0856583	0.42498358	0.10971514	1.4626698	0.41549309	-0.072445658	1.107113	0.41918857	-0.016625082	1.300601	0.8000383	-0.22551983	1.1942399	0.82259957	0.15199363	1.3361445	0.90560749	-0.13963248	1.2842341	0.90739782	0.10491125	1.1162638	0.91230921	-0.074621053	1.2317785	1.3848322	-0.18769662	1.2039763	1.3742051	0.1287274	1.1373164	1.3986763	-0.039397509	1.0532622	1.1079545	-0.27433481	1.241944	1.0220344	0.23179411	1.0660882	0.87390642	-0.32995165	1.4909324	1.0451809	0.19115561
443	1.768	1.6940626	0.067637086	-0.16039584	0.97572634	0.038575229	0.050774806	1.5575146	0.067579071	-0.18540674	0.85415131	0.099109544	0.09486582	1.5665386	0.089027151	-0.10267009	0.87696659	0.11476312	0.0081258664	1.5016068	0.027463122	-0.14056256	0.7934686	0.094544354	0.051302017	1.4489289	0.44306734	-0.19141626	1.0915588	0.42464434	0.10876487	1.4687232	0.41521233	-0.072747716	1.1128222	0.41861691	-0.017884296	1.3069804	0.8004809	-0.22672951	1.2008165	0.8217418	0.15084638	1.342396	0.90575394	-0.14044083	1.2908649	0.90657939	0.10391972	1.1224253	0.91237716	-0.075589365	1.2372253	1.384539	-0.18901497	1.2098314	1.3739853	0.12759673	1.1427546	1.398229	-0.040589868	1.0590914	1.1070917	-0.27482378	1.2473207	1.0214531	0.2297803	1.0721548	0.87314052	-0.33069604	1.4962918	1.0442802	0.18902305
444	1.772	1.6972363	0.063752407	-0.16017494	0.97626373	0.038583898	0.050730679	1.5606504	0.067237555	-0.18555111	0.85693507	0.10195997	0.095213677	1.5696295	0.088690473	-0.1026822	0.87929432	0.11696704	0.0084587686	1.503001	0.028915176	-0.14115714	0.7955774	0.098414934	0.051647627	1.4549909	0.44328371	-0.19217056	1.0975394	0.42435585	0.1077618	1.4748256	0.41519456	-0.073101735	1.1187042	0.41805391	-0.019062487	1.313413	0.80106235	-0.22794302	1.2076492	0.82084678	0.1496941	1.3486031	0.90599003	-0.14137381	1.2975366	0.90581603	0.10284586	1.1285258	0.9123995	-0.076385856	1.2426938	1.384313	-0.19035357	1.2157527	1.3738524	0.12648585	1.1482176	1.3978782	-0.041820002	1.065017	1.1062301	-0.27532388	1.2526159	1.0209202	0.22771658	1.0783659	0.87236169	-0.33141097	1.5016007	1.0433084	0.18692395
445	1.776	1.6999251	0.060147258	-0.15959895	0.97683317	0.038583666	0.050709662	1.5633717	0.066805494	-0.18575828	0.85976327	0.10488758	0.095426854	1.5723766	0.088265992	-0.10277802	0.8818368	0.11926412	0.008782983	1.5043252	0.030206416	-0.14177536	0.79790965	0.10245205	0.051929633	1.4610992	0.44376391	-0.19295222	1.1037814	0.42409281	0.1067111	1.4809071	0.41551832	-0.073562891	1.1247855	0.41749847	-0.020068099	1.3199043	0.8018112	-0.22914154	1.2146357	0.81992677	0.14856399	1.3547822	0.90631859	-0.14241561	1.3042361	0.90512438	0.10170729	1.1346109	0.91235242	-0.077052065	1.2481594	1.384144	-0.19168282	1.2217261	1.3738356	0.12538106	1.1537458	1.3976345	-0.043074312	1.0710351	1.1053896	-0.27583438	1.2578336	1.0204386	0.22560571	1.0847207	0.87158258	-0.33208897	1.5068676	1.0422662	0.18485544
446	1.78	1.7021925	0.056580779	-0.15872532	0.97743884	0.038568372	0.050734771	1.5656956	0.066363207	-0.18599272	0.86238333	0.10786876	0.095504809	1.5747325	0.087806455	-0.10292217	0.88462764	0.12164703	0.0090739296	1.505526	0.031347487	-0.14236323	0.80049046	0.10665875	0.052093077	1.4672996	0.44449364	-0.19369279	1.1103635	0.42384525	0.10561939	1.4867292	0.41616742	-0.074175599	1.1310977	0.41695167	-0.020856572	1.3264486	0.8027375	-0.23031233	1.2216227	0.81898929	0.14749158	1.3609386	0.90676747	-0.14353472	1.3109778	0.90449789	0.10051851	1.1407059	0.91234006	-0.077708089	1.2536076	1.3840268	-0.19298873	1.227737	1.3739469	0.12426733	1.159371	1.397503	-0.044324891	1.0771321	1.104581	-0.27634017	1.2630048	1.0200176	0.22346727	1.0912186	0.87081565	-0.33273085	1.5120879	1.0411541	0.18281911
